# xmcd
#
# Track frame offsets: 
#        150
#        8786
#        27006
#        41632
#        65018
#        73167
#        91577
#        103883
#        122698
#        138770
#        153429
#        171773
#        189783
#        209079
#
# Disc length: 3043 seconds
#
# Revision: 0
# Processed by: cddbd v1.5.2PL0 Copyright (c) Steve Scherf et al.
# Submitted via: ExactAudioCopy v0.95b4
#
DISCID=ba0be10e
DTITLE=Wayne Metheny Gospel Band - God's World
DYEAR=2006
DGENRE=Southern Gospel
TTITLE0=I'm So Glad, Jesus Lifted Me
TTITLE1=On My Father's Side
TTITLE2=I'm Ready To Go
TTITLE3=I Need Someone
TTITLE4=Old Time Religion
TTITLE5=If Not Tomorrow, Why Not Today?
TTITLE6=Bride Away
TTITLE7=God's World
TTITLE8=To Be Holy, Like Jesus
TTITLE9=Brotherly Love
TTITLE10=We Need A Vision
TTITLE11=Well Done My Child
TTITLE12=Far Beyond The Starry Sky
TTITLE13=One Thing, Jesus Christ
EXTD=
EXTT0=
EXTT1=
EXTT2=
EXTT3=
EXTT4=
EXTT5=
EXTT6=
EXTT7=
EXTT8=
EXTT9=
EXTT10=
EXTT11=
EXTT12=
EXTT13=
PLAYORDER=
